# xmcd CD database file
#
# Track frame offsets:
#	150
#	16969
#	31221
#	45155
#	56209
#	71646
#	89734
#	103741
#	120233
#	140020
#	155179
#	175393
#	193153
#
# Disc length: 2784 seconds
#
# Revision: 0
# Processed by: cddbd v1.5.2PL0 Copyright (c) Steve Scherf et al.
# Submitted via: jetAudio 7
#
DISCID=b90ade0d
DTITLE=Alan Stivell  - Olympia Concert
DYEAR=1900
DGENRE=장르 없음
TTITLE0=The Wind Of Keltia (Alan Stivell, Steve Waring)
TTITLE1=An Dro (Traditional arr. Alan Stivell )
TTITLE2=The Trees They Grow High (Traditional arr. Alan Stivell)
TTITLE3=An Alarc'h (Traditional arr. Alan Stivell)
TTITLE4=An Durzhunel (Traditional arr. Alan Stivell)
TTITLE5=Telenn Gwad (Traditional arr. Alan Stivell)
TTITLE6=The Foggy Dew (Traditional arr. Alan Stivell)
TTITLE7=Pop Plinn (Traditional arr. Alan Stivell )
TTITLE8=The Mi Sgith (Traditional arr. Alan Stivell)
TTITLE9=The King Of The Fairies (Traditional arr. Alan Stivell)
TTITLE10=Tri Martolod (Traditional arr. Alan Stivell)
TTITLE11=Kost Ar C'hoad (Traditional arr. Alan Stivell)
TTITLE12=Suite Sudarmoricaine (Traditional arr. Alan Stivell)
EXTD=
EXTT0=
EXTT1=
EXTT2=
EXTT3=
EXTT4=
EXTT5=
EXTT6=
EXTT7=
EXTT8=
EXTT9=
EXTT10=
EXTT11=
EXTT12=
PLAYORDER=
